<svg xmlns="http://www.w3.org/2000/svg" width="512" height="512" viewBox="0 0 512 512" version="1.1">
	<path d="M 384 95.978 C 383.175 96.395, 378.277 98.869, 373.115 101.476 C 367.953 104.084, 362.328 106.649, 360.615 107.177 C 358.683 107.773, 308.286 108.089, 227.863 108.009 L 98.225 107.880 97.527 129.190 C 97.143 140.910, 96.980 153.200, 97.164 156.500 L 97.500 162.500 234.500 162.168 C 313.403 161.976, 374.170 161.435, 377.796 160.891 C 387.293 159.467, 391.775 157.317, 394.611 152.824 C 395.965 150.680, 396.792 148.473, 396.450 147.919 C 396.108 147.365, 396.355 146.277, 397 145.500 C 397.645 144.723, 397.934 143.703, 397.644 143.233 C 397.353 142.762, 397.522 138.078, 398.019 132.823 C 398.902 123.492, 401.714 114.105, 404.579 110.921 C 406.309 108.999, 406.391 108, 404.820 108 C 404.171 108, 400.908 106.246, 397.570 104.103 C 394.231 101.959, 390.552 99.924, 389.393 99.581 C 388.234 99.237, 386.884 98.115, 386.393 97.088 C 385.802 95.852, 384.993 95.476, 384 95.978 M 215 275.255 L 215 385.510 250.755 421.255 C 270.420 440.915, 286.845 457, 287.255 457 C 287.665 457, 288 391.300, 288 311 L 288 165 251.500 165 L 215 165 215 275.255" stroke="none" fill="black" fill-rule="evenodd"/>
</svg>